<?xml version="1.0" encoding="utf-8"?>
<!-- Svg Vector Icons : http://www.onlinewebfonts.com/icon -->
<!DOCTYPE svg PUBLIC "-//W3C//DTD SVG 1.1//EN" "http://www.w3.org/Graphics/SVG/1.1/DTD/svg11.dtd">
<svg version="1.1" xmlns="http://www.w3.org/2000/svg" xmlns:xlink="http://www.w3.org/1999/xlink" x="0px" y="0px" viewBox="0 0 1000 1000" enable-background="new 0 0 1000 1000" xml:space="preserve">
<metadata> Svg Vector Icons : http://www.onlinewebfonts.com/icon </metadata>
<g><g transform="translate(0.000000,511.000000) scale(0.100000,-0.100000)"><path style="fill: white" d="M6462.5,4570.2c-883.7-143.8-1635.1-766.8-1920.7-1591c-28.8-84.3-55.6-157.2-57.5-161c-3.8-3.8-55.6,36.4-116.9,88.2c-235.8,203.2-498.4,341.2-784,412.1c-218.5,55.6-634.5,59.4-839.6,9.6c-347-86.3-628.8-245.4-885.6-500.3c-368-368-531-762.9-532.9-1286.2c-1.9-253,26.8-431.3,93.9-605.8c7.7-21.1-9.6-24.9-99.7-21.1c-159.1,9.6-368-40.3-555.9-130.4c-283.7-138-506.1-398.7-621.1-728.4C106-47.6,98.4-109,100.3-308.3c0-207,5.7-258.8,47.9-377.6c153.4-433.2,486.9-728.4,922-818.5c130.4-26.8,552.1-30.7,3923.9-30.7c4186.5,0,3933.5-7.7,4207.6,124.6c350.8,168.7,590.4,477.3,669,858.8c38.3,180.2,38.3,295.2,3.8,479.2c-82.4,423.6-412.1,801.3-810.8,923.9c-61.3,19.2-113.1,36.4-116.9,38.3c-3.8,3.8,28.8,72.8,69,155.3c95.8,191.7,182.1,433.2,226.2,640.2c47.9,224.3,47.9,693.9,1.9,920.1c-109.3,517.6-314.4,899-682.4,1267.1C8205,4230.9,7783.2,4459,7309.7,4551C7083.6,4595.1,6673.3,4604.7,6462.5,4570.2z"/><path  style="fill: white" d="M2063.2-2484l-337.4-335.5v-95.8c0-82.4,7.7-103.5,63.3-157.2c53.7-55.6,74.8-63.3,157.2-63.3h95.8l335.5,337.4c314.4,314.4,335.5,339.3,335.5,408.3c0,145.7-95.8,241.5-241.5,241.5C2402.5-2148.6,2377.6-2169.7,2063.2-2484z"/><path  style="fill: white" d="M4850.4-2169.7c-59.4-32.6-603.8-577-634.5-634.5c-101.6-191.7,99.7-414,285.6-320.1c59.4,30.7,624.9,592.3,657.5,653.7c34.5,67.1,34.5,118.8-3.8,199.3C5103.4-2163.9,4953.9-2114.1,4850.4-2169.7z"/><path   style="fill: white" d="M7323.2-2165.8c-21.1-9.6-182.1-162.9-358.5-341.2c-301-302.9-322-329.7-322-396.8c0-145.7,95.8-241.5,241.5-241.5c69,0,93.9,21.1,408.3,335.5l337.4,335.5v95.8c0,80.5-9.6,103.5-59.4,155.3C7507.2-2160.1,7394.1-2135.1,7323.2-2165.8z"/><path d="M3029.3-3396.5c-59.4-32.6-603.8-577-634.5-634.5c-92-174.4,65.2-379.5,255-333.5c72.8,19.2,688.2,634.5,707.3,707.3c21.1,86.3-23,201.3-93.9,243.5C3196.1-3371.6,3088.7-3363.9,3029.3-3396.5z"/><path  style="fill: white" d="M5168.6-3710.8l-337.4-335.5v-95.8c0-82.4,7.7-103.5,63.3-157.2c53.7-55.6,74.8-63.3,157.2-63.3h95.8l335.5,337.4c314.4,314.4,335.5,339.3,335.5,408.3c0,145.7-95.8,241.5-241.5,241.5C5507.9-3375.4,5482.9-3396.5,5168.6-3710.8z"/></g></g>
</svg>