<?xml version="1.0" encoding="utf-8"?>
<!-- Svg Vector Icons : http://www.onlinewebfonts.com/icon -->
<!DOCTYPE svg PUBLIC "-//W3C//DTD SVG 1.1//EN" "http://www.w3.org/Graphics/SVG/1.1/DTD/svg11.dtd">
<svg version="1.1" xmlns="http://www.w3.org/2000/svg" xmlns:xlink="http://www.w3.org/1999/xlink" x="0px" y="0px" viewBox="0 0 1000 1000" enable-background="new 0 0 1000 1000" xml:space="preserve">
<metadata> Svg Vector Icons : http://www.onlinewebfonts.com/icon </metadata>
<g><g transform="translate(0.000000,511.000000) scale(0.100000,-0.100000)"><path style="fill: white" d="M6652.4,4575.6c-549.8-60.4-1041.4-299.7-1429.5-690l-179-181.1l-148.8,71.2c-239.3,114.3-383.8,142.3-657.6,131.5c-379.5-17.2-653.3-133.7-942.2-403.2c-252.3-237.2-433.4-592.9-463.6-920.7c-6.5-75.5-15.1-138-19.4-138c-4.3,0-62.5,25.9-131.5,56c-110,47.4-146.6,53.9-301.9,47.4c-144.5-8.6-200.5-21.6-319.1-79.8c-183.3-90.6-345-252.3-446.3-448.5l-81.9-150.9l-129.4-15.1C608.8,1764,11.6,998.6,110.8,198.7c73.3-582.1,452.8-1056.5,1009-1254.8l185.4-66.8h3697.7h3697.7l172.5,60.4c504.5,179,877.5,586.5,993.9,1091c45.3,189.8,43.1,515.3-2.1,692.1c-81.9,314.8-327.7,661.9-603.7,851.7c-79.8,56.1-116.4,94.9-110,116.4c53.9,181.1,81.9,446.3,71.2,670.6c-43.1,843-532.6,1593.3-1285,1970.7C7534.2,4532.4,7066.3,4623,6652.4,4575.6z M7351,4234.9c748.1-178.9,1326-761.1,1515.7-1524.4c64.7-265.2,64.7-674.9,0-940c-34.5-133.7-41-202.7-25.9-230.7c10.8-21.6,103.5-94.9,207-161.7c360.1-241.5,547.7-584.3,547.7-1009.1c0-517.5-323.4-970.2-815-1140.6L8636-821.1h-3633h-3633l-144.5,49.6c-489.4,168.2-815,620.9-815,1129.8c0,332,103.5,605.8,316.9,832.2c209.1,222.1,470,349.3,793.4,381.6c181.1,19.4,239.3,51.7,258.7,144.5c62.5,286.8,323.4,508.8,618.8,530.4c172.5,12.9,301.9-19.4,439.8-105.7c114.3-73.3,185.4-79.8,245.8-19.4c36.7,36.7,43.1,71.2,43.1,254.4c0,375.2,101.3,627.4,353.6,879.7c383.8,383.8,914.2,461.4,1410.1,209.1c125.1-62.5,198.4-88.4,232.9-79.8c28,6.5,90.6,64.7,140.1,129.4c306.2,398.9,827.9,694.3,1345.4,761.1C6814.1,4303.9,7135.4,4284.5,7351,4234.9z"/><path d="M2529.9-1526.2c-25.9-12.9-71.2-77.6-99.2-144.5c-135.8-301.9-273.8-651.1-273.8-687.8c0-110,189.7-181.1,263-94.9c51.7,60.4,319.1,728.8,319.1,797.8C2739.1-1554.2,2622.6-1480.9,2529.9-1526.2z"/><path d="M4226.8-1528.3c-41-21.6-88.4-107.8-209.1-392.4c-84.1-202.7-155.2-392.4-155.2-424.8c-4.3-116.4,146.6-189.7,241.5-118.6c45.3,32.3,338.5,739.5,338.5,815C4442.4-1549.9,4321.6-1480.9,4226.8-1528.3z"/><path d="M5940.9-1521.9c-66.9-25.9-79.8-49.6-235-422.6c-148.8-366.5-168.2-452.8-103.5-511c53.9-49.6,161.7-45.3,207,4.3c43.1,49.6,336.4,743.9,336.4,799.9C6145.7-1562.8,6024.9-1487.4,5940.9-1521.9z"/><path d="M7594.6-1558.5c-36.7-36.7-116.4-207-209.1-431.2l-148.8-373l43.1-58.2c56.1-75.5,176.8-92.7,228.6-34.5c19.4,21.6,105.6,207,189.7,413.9c138,334.2,150.9,379.5,129.4,433.4c-21.6,53.9-99.2,107.8-153.1,107.8C7661.4-1500.3,7624.8-1526.2,7594.6-1558.5z"/><path d="M3306.1-1698.7c-47.4-23.7-157.4-239.3-157.4-314.8c0-73.3,71.2-140.1,148.8-140.1c88.4,0,135.8,49.6,194.1,204.8c51.7,142.3,36.7,211.3-56.1,252.2C3375.1-1668.5,3368.6-1668.5,3306.1-1698.7z"/><path d="M5007.3-1694.4c-56.1-23.7-155.2-226.4-155.2-321.3c0-99.2,107.8-168.2,207-131.5c36.7,15.1,71.1,60.4,107.8,140.1c69,157.4,66.9,232.9-4.3,288.9C5100-1668.5,5080.6-1666.3,5007.3-1694.4z"/><path d="M6676.1-1720.2c-69-64.7-142.3-271.7-118.6-334.2c8.6-25.9,41-62.5,73.3-84.1c88.4-58.2,166-10.8,235,142.3c69,155.2,71.1,202.7,2.1,269.5C6803.3-1659.9,6745.1-1657.7,6676.1-1720.2z"/><path d="M8383.7-1713.8c-30.2-23.7-77.6-99.2-103.5-166c-58.2-144.4-43.1-217.8,53.9-265.2c53.9-25.9,69-25.9,116.4,0c66.8,36.7,159.5,219.9,161.7,317C8612.3-1700.8,8482.9-1636.1,8383.7-1713.8z"/><path d="M2959-2485.6c-23.7-21.6-92.7-163.9-155.2-319.1c-202.7-493.7-194.1-465.7-161.7-543.3c36.7-84.1,122.9-114.3,200.5-69c41,23.7,92.7,120.8,211.3,407.5c86.2,207,157.4,392.4,159.6,411.8c0,19.4-19.4,60.4-45.3,92.7C3116.4-2438.2,3023.7-2429.6,2959-2485.6z"/><path d="M4651.5-2485.6c-62.5-71.2-342.8-784.8-329.9-838.7c28-107.8,174.6-144.5,256.6-64.7c51.7,51.7,338.5,782.7,323.4,825.8C4875.7-2490,4824-2449,4755-2449C4716.2-2449,4670.9-2466.2,4651.5-2485.6z"/><path d="M6352.7-2490c-49.6-56.1-336.3-746-336.3-810.7c0-56,90.6-140.1,153.1-140.1c82,0,146.6,101.3,286.8,446.3c77.6,191.9,142.3,373,142.3,403.2C6598.5-2468.4,6432.4-2401.6,6352.7-2490z"/><path d="M8058.1-2474.9c-47.4-36.7-338.5-739.5-338.5-817.1c0-38.8,19.4-75.5,56-103.5c71.2-56.1,118.6-56.1,179-6.5c49.6,41,347.1,741.7,347.1,819.3C8301.8-2477,8148.7-2410.2,8058.1-2474.9z"/><path d="M2001.7-2744.4c-45.3-49.6-125-235-125-288.9c0-53.9,92.7-148.8,146.6-148.8c73.3,0,148.8,81.9,198.4,215.6l49.6,131.5l-43.1,58.2C2174.2-2703.4,2053.4-2686.2,2001.7-2744.4z"/><path d="M3707.1-2729.3c-45.3-25.9-133.7-258.7-122.9-323.4c4.3-28,32.3-69,64.7-92.7c92.7-69,163.8-32.3,237.2,114.3c69,140.1,75.5,237.2,21.6,286.8C3864.5-2703.4,3761-2696.9,3707.1-2729.3z"/><path d="M5395.4-2735.7c-43.1-51.8-112.1-232.9-112.1-295.4c0-112.1,129.4-183.3,222.1-122.9c49.6,32.3,144.5,239.3,144.5,314.8c0,75.5-62.5,131.5-148.8,131.5C5455.7-2707.7,5408.3-2720.7,5395.4-2735.7z"/><path d="M7087.9-2746.5c-19.4-19.4-56.1-92.7-81.9-161.7c-53.9-142.3-38.8-213.5,53.9-256.6c97-43.1,174.6,8.6,239.3,166c60.4,140.1,58.2,196.2-2.1,258.7C7251.8-2694.8,7131-2699.1,7087.9-2746.5z"/><path d="M1730-3412.8c-43.1-38.8-349.3-752.5-349.3-817.1c0-51.7,101.3-138,161.7-138c30.2,0,71.2,17.2,92.7,38.8c53.9,53.9,334.2,733.1,334.2,810.7C1971.5-3399.8,1822.7-3335.1,1730-3412.8z"/><path d="M3431.2-3412.8c-47.4-41-347.1-735.2-347.1-806.4c0-58.2,94.9-148.8,157.4-148.8c28,0,71.2,21.6,94.9,49.6c58.2,60.4,329.9,722.3,329.9,797.8C3666.2-3399.8,3526-3335.1,3431.2-3412.8z"/><path d="M5117.2-3423.5c-56.1-62.5-329.9-724.4-329.9-799.9c0-66.8,75.5-144.5,142.3-144.5c25.9,0,66.8,17.2,92.7,38.8c49.6,41,347.1,735.2,347.1,810.7c0,62.5-86.2,142.3-153.1,142.3C5186.2-3376.1,5140.9-3397.7,5117.2-3423.5z"/><path d="M6818.4-3414.9c-53.9-53.9-334.2-733.1-334.2-810.7c-2.2-118.6,146.6-183.3,239.3-103.5c43.1,36.7,349.3,750.3,349.3,815c0,51.7-101.3,138-161.7,138C6880.9-3376.1,6840-3393.3,6818.4-3414.9z"/><path d="M2430.7-3757.7c-47.4-53.9-122.9-237.2-122.9-299.7c0-69,73.3-138,146.6-138c155.2,0,293.2,355.8,172.5,439.9C2562.3-3710.3,2473.9-3712.5,2430.7-3757.7z"/><path d="M4144.8-3736.2c-38.8-15.1-133.7-235-133.7-310.5c0-116.4,114.3-181.1,219.9-125.1c49.6,25.9,146.6,232.9,146.6,310.5C4377.7-3757.7,4252.6-3693.1,4144.8-3736.2z"/><path d="M5841.7-3742.6c-19.4-10.8-62.5-84.1-97-163.8c-56.1-131.5-58.2-146.6-28-198.4c41-73.3,129.4-105.7,200.5-73.3c51.8,23.7,133.7,170.3,155.2,284.6C6098.3-3777.1,5949.5-3680.1,5841.7-3742.6z"/><path d="M7521.3-3757.7c-47.4-53.9-125-239.3-125-297.5c0-99.2,140.1-170.3,235-118.6c51.7,25.9,157.4,286.7,138,338.5c-25.9,73.3-77.6,114.3-146.6,114.3C7583.8-3721.1,7538.5-3738.3,7521.3-3757.7z"/></g></g>
</svg>